<?xml version="1.0" encoding="UTF-8" standalone="no"?>
<!-- Created with Inkscape (http://www.inkscape.org/) -->
<svg xmlns:dc="http://purl.org/dc/elements/1.1/" xmlns:cc="http://creativecommons.org/ns#" xmlns:rdf="http://www.w3.org/1999/02/22-rdf-syntax-ns#" xmlns:svg="http://www.w3.org/2000/svg" xmlns="http://www.w3.org/2000/svg" xmlns:sodipodi="http://sodipodi.sourceforge.net/DTD/sodipodi-0.dtd" xmlns:inkscape="http://www.inkscape.org/namespaces/inkscape" width="99.660004" height="38.549999" id="svg2" version="1.1" inkscape:version="0.47 r22583" sodipodi:docname="New document 1">
  <defs id="defs4">
    <inkscape:perspective sodipodi:type="inkscape:persp3d" inkscape:vp_x="0 : 526.18109 : 1" inkscape:vp_y="0 : 1000 : 0" inkscape:vp_z="744.09448 : 526.18109 : 1" inkscape:persp3d-origin="372.04724 : 350.78739 : 1" id="perspective10"/>
    <clipPath id="clipPath3152" clipPathUnits="userSpaceOnUse">
      <path id="path3154" d="M 0,783 594,783 594,0 0,0 0,783 z"/>
    </clipPath>
    <clipPath id="clipPath3146" clipPathUnits="userSpaceOnUse">
      <path id="path3148" d="M 0,783 594,783 594,0 0,0 0,783 z"/>
    </clipPath>
    <clipPath id="clipPath3136" clipPathUnits="userSpaceOnUse">
      <path id="path3138" clip-rule="evenodd" d="m 309.735,625.358 227.072,0 0,-144.881 -227.072,0 0,144.881 z"/>
    </clipPath>
    <clipPath id="clipPath3124" clipPathUnits="userSpaceOnUse">
      <path id="path3126" d="M 0,783 594,783 594,0 0,0 0,783 z"/>
    </clipPath>
    <clipPath id="clipPath3118" clipPathUnits="userSpaceOnUse">
      <path id="path3120" d="M 0,783 594,783 594,0 0,0 0,783 z"/>
    </clipPath>
    <clipPath id="clipPath3108" clipPathUnits="userSpaceOnUse">
      <path id="path3110" d="M 0,783 594,783 594,0 0,0 0,783 z"/>
    </clipPath>
    <clipPath id="clipPath3102" clipPathUnits="userSpaceOnUse">
      <path id="path3104" d="M 0,783 594,783 594,0 0,0 0,783 z"/>
    </clipPath>
    <clipPath id="clipPath3096" clipPathUnits="userSpaceOnUse">
      <path id="path3098" clip-rule="evenodd" d="m 206.094,580.754 72.138,0 0,-63.17 -72.138,0 0,63.17 z"/>
    </clipPath>
    <clipPath id="clipPath3090" clipPathUnits="userSpaceOnUse">
      <path id="path3092" clip-rule="evenodd" d="m 236.205,550.81 c 0,0 -1.478,-0.668 -1.583,-1.089 0,0 -0.914,-0.879 -2.109,-1.195 0,0 -1.722,-0.668 -2.284,-0.563 0,0 -2.039,-1.3 -6.467,-2.987 l -2.812,-1.37 -4.288,-1.968 c 0,0 -2.882,-1.3 -3.62,-2.003 0,0 -2.637,-1.897 -3.129,-3.127 0,0 -0.738,-1.159 0,-1.371 0,0 0.669,-1.229 1.477,-1.194 0,0 0.386,-0.562 0.773,-0.247 0,0 1.089,-0.491 2.145,-0.245 0,0 0.842,-0.422 1.124,-0.246 0,0 0.492,-0.176 2.038,0.352 0,0 0.458,0.456 0.809,0.139 0,0 0.526,-0.351 1.019,-0.07 0,0 0.879,0.212 1.125,0.457 0,0 0.598,0.316 0.808,0 0,0 0.773,0.071 1.265,0.457 0,0 0.527,0.175 0.773,0.387 0,0 0.634,0.808 0.703,0.738 0,0 1.758,1.933 0.528,0.105 0,0 0,-0.527 0.351,-0.386 0,0 0.036,-1.336 0.773,-1.091 0,0 0.88,-0.315 1.969,0.247 0,0 1.722,0.317 2.144,0.809 0,0 0.948,0.281 1.159,0.667 0,0 0.88,0.036 1.02,0.667 0,0 0.597,2.004 1.23,2.707 0,0 1.019,1.65 0.246,-0.036 0,0 -0.809,-1.932 -0.949,-2.951 0,0 0.668,0.526 0.739,0.386 0.069,-0.141 -0.036,0.105 -0.036,0.105 0,0 1.265,0.704 1.371,1.442 0,0 0.176,0.491 0.386,0.385 0,0 1.618,1.195 1.618,1.863 0,0 -0.212,0.739 0.597,1.159 0,0 0.703,0.528 1.124,2.284 0,0 0.668,0.597 0.422,1.476 l 0.071,1.476 c 0,0 0.21,-0.351 0.456,0 0,0 0.457,0.422 0.422,1.054 0,0 0.422,-0.105 0.457,-0.457 0,0 0.281,-0.983 0.738,-1.089 0,0 0.386,-0.807 0.738,-0.773 0,0 -2.073,-1.792 -2.495,-2.495 l -0.035,-0.245 c 0,0 -0.493,-1.019 -1.406,-1.828 0,0 -1.23,-1.581 -1.863,-2.846 l 0.246,-0.035 c 0,0 -1.019,-1.933 -1.371,-2.53 0,0 0.316,-0.07 -0.035,-0.808 0,0 0.422,0.106 0.281,-0.492 0,0 0.633,-0.281 0.703,0.035 0,0 -0.562,0.702 -0.281,1.089 0,0 0.387,1.476 0.948,2.424 0,0 0.212,0.247 0.352,-0.069 0,0 1.898,2.811 2.004,3.303 0,0 0.773,1.511 1.16,1.335 0,0 0.245,-0.281 0.492,0.21 0,0 2.073,1.477 2.354,2.18 0,0 0.95,0.386 1.441,-0.915 0,0 0,-0.386 0.316,0.142 l 0.669,0.877 c 0,0 0.597,0.141 0.632,-0.877 0,0 -1.37,-1.02 -1.547,-1.512 0,0 -1.299,-1.511 -2.249,-3.408 0,0 -0.421,-0.281 -0.071,-0.809 0,0 2.181,-6.22 2.25,-7.028 0,0 0.282,0.563 0.387,0.036 0,0 0.985,-1.722 1.301,-1.967 0,0 1.827,-2.532 2.073,-3.339 0,0 0.528,-0.421 0.668,-0.738 0,0 0.879,-1.125 2.003,-1.862 0,0 0.071,0.21 0.387,-0.036 0,0 0.106,-0.316 0.668,-0.158 0,0 0.492,0.351 -0.053,0.088 0,0 -0.492,0.281 -0.018,0.281 0,0 0.282,0.035 0.405,0.212 0,0 0.299,0.491 -0.123,0.052 0,0 -0.351,-0.176 -0.545,0 l -0.334,0 c 0,0 -0.281,-0.017 -0.21,0.175 l -0.932,0.51 c 0,0 -0.228,0.176 0,0.193 0,0 0.351,-0.106 -0.018,0.123 0,0 -0.422,0.281 -0.632,0.299 l 0.035,0.176 c 0,0 -0.334,0.474 -0.616,0.491 0,0 -0.14,0.95 -0.807,1.231 0,0 -0.212,0.123 0.157,0.21 0,0 0.246,0.035 -0.773,1.195 l -2.073,2.828 c 0,0 -0.141,0.37 0.122,0.088 0,0 0.159,-0.192 0.44,-0.263 0,0 0.457,-0.404 0.088,0.036 l -0.511,0.632 c 0,0 0,1.16 -0.316,1.458 0,0 -1.107,2.547 -1.423,3.11 l -0.897,1.686 c 0,0 -0.245,0.106 0.265,0.615 0,0 0.351,0.844 1.423,1.862 0,0 0.774,0.774 1.828,2.092 0,0 0.21,0.228 0.123,-0.247 0,0 -0.246,-1.142 0.896,-3.004 l 0.141,-0.281 c 0,0 -0.124,-0.509 0.386,-0.65 0,0 0.124,-1.951 1.037,-3.513 0,0 0.563,-1.072 1.635,-2.039 0,0 0.422,-0.685 1.529,-1.353 0,0 0.931,-0.368 0.984,-0.633 0,0 1.335,-1.107 1.792,-1.247 0,0 0.194,-0.245 1.16,0 0,0 0.157,-0.51 1.019,-0.298 0,0 -0.053,-0.475 1.213,-0.44 0,0 0.245,-0.386 0.667,-0.263 0,0 0.528,-1.055 1.09,-1.071 0,0 0.738,-2.565 0.229,-0.036 0,0 0.773,-0.176 1.247,0.772 0,0 2.161,-2.599 0.123,0.283 0,0 0.018,1.228 -0.281,2.002 0,0 0.123,0.316 -0.052,0.686 0,0 0.227,0.878 -0.018,0.807 0,0 0.175,0.141 -0.141,0.51 0,0 0.176,1.019 -0.105,1.16 0,0 0.403,0.65 -0.106,1.546 0,0 -0.264,1.037 -0.843,1.915 0,0 0.053,0.685 -0.281,0.79 0,0 -0.053,0.405 -0.194,0.405 0,0 -0.791,2.284 -1.775,2.828 0,0 -0.334,0.702 -1.88,1.23 l -1.582,0.809 c 0,0 0.106,0.526 -0.633,0.614 0,0 -0.93,0.773 -1.177,0.879 0,0 -0.756,0.808 -2.267,0.895 l -0.79,0.123 c 0,0 -1.107,0.193 0.052,0.246 0,0 0.72,0.035 1.476,0.545 l 2.9,1.81 c 0,0 0.633,0.14 0.703,0.422 0,0 0.193,-0.212 0.299,0.088 l 1.177,-0.914 c 0,0 0.949,-0.897 2.407,-1.704 0,0 1.125,-1.091 1.582,-1.02 0,0 0.493,-0.246 0.756,-0.122 l 0.51,-0.563 c 0,0 0.667,-0.685 0.087,0.123 0,0 -0.21,0.422 -0.316,0.51 0,0 0.298,-0.123 0.651,-0.545 0,0 2.073,-2.09 3.567,-3.233 0,0 0.158,0.054 0.071,0.193 0,0 0.281,-0.122 0.298,-0.386 0,0 0.791,-0.756 0.984,-0.544 0,0 0.018,0.298 0.106,0.088 0,0 0.492,-0.686 0.755,-0.598 0,0 0.088,0.298 0.21,0.017 0,0 0.405,-0.544 0.546,-0.457 0,0 0,0.387 0.175,0.088 0,0 0.879,-0.966 0.985,-0.702 0,0 0.175,-0.246 0.369,-0.264 0,0 0.703,-0.685 0.157,0.053 0,0 0.634,0.264 -0.07,0.299 0,0 -0.087,0.245 0.141,0.175 0,0 0.809,0.07 -0.035,0.123 0,0 -1.09,0.72 -1.459,0.774 0,0 0.124,0.105 -0.035,0.139 l -0.774,0.282 c 0,0 0.212,0.228 -0.122,0.21 0,0 -0.58,0.142 -0.738,0.23 0,0 -0.158,0.14 -0.017,0.122 0,0 0.14,0.07 -0.124,0.088 0,0 -0.492,0.141 -1.019,0.475 0,0 0.281,0.14 -0.052,0.192 0,0 -1.442,1.072 -2.883,2.46 l -1.159,0.967 c 0,0 -0.387,0.369 -0.036,0.439 l -4.322,2.337 -2.303,1.283 c 0,0 -0.247,0.104 -0.193,0.28 0,0 -0.527,0.159 -0.774,-0.105 l -2.055,-0.843 c 0,0 -1.266,-0.527 -1.53,-0.949 0,0 -0.298,0.685 -0.667,1.124 0,0 -0.018,1.564 -0.123,1.688 0,0 -0.229,0.21 0.229,0.386 0,0 1.176,1.651 1.141,1.722 0,0 0.369,0.386 0.353,0.773 0,0 0.842,-0.018 1.141,0.175 0,0 2.109,0.281 2.514,0.791 0.07,0.017 1.756,0.333 1.527,0.755 0,0 2.198,0.756 3.235,0.685 0,0 0.263,-0.035 0.088,0.211 0,0 1.001,-0.052 1.142,0.158 0,0 0.562,-0.088 0.984,0.124 0,0 0.422,-0.387 0.808,-0.159 0,0 0.843,-0.404 1.09,-0.263 0,0 0.018,-0.369 0.211,-0.387 0,0 0.035,-0.439 0.14,-0.404 0,0 -0.562,-0.826 0.142,0.018 0,0 -0.019,0.457 -0.159,0.632 0,0 0.298,0.229 0.07,0.316 0,0 -0.07,0.247 0.211,0.07 0,0 0.298,-0.088 0.281,-0.369 l 0.017,0.318 c 0,0 0.089,0.21 -0.562,0.245 0,0 0,0.352 -0.439,0.298 0,0 -1.107,0.211 -1.248,0.071 0,0 -0.21,0.122 -0.018,0.193 0,0 -0.456,0.141 -0.86,-0.158 0,0 -0.229,0.105 -0.071,0.175 0,0 0.071,0.177 -0.333,-0.017 l -0.51,-0.264 c 0,0 -0.264,0 -0.053,0.193 0,0 -0.052,0.124 -0.263,-0.087 l -0.774,-0.333 c 0,0 0.088,0.316 -0.193,0.087 l -1.407,-0.352 c 0,0 0.159,0.51 1.056,0.756 0,0 1.352,0.967 1.704,1.617 0,0 1.651,1.193 0.966,1.299 0,0 0.194,0.141 0.053,0.282 0,0 1.828,1.388 1.792,1.844 0,0 0.422,0.809 0.088,1.002 0,0 0.739,0.86 0.37,1.476 0,0 -0.106,0.193 0,0.527 0,0 -0.053,0.72 -1.108,0.492 0,0 -0.298,0.141 -1.335,-0.475 0,0 -0.386,-0.087 0.299,0.404 0,0 0.21,0.177 1.792,1.037 0,0 0.95,0.474 1.231,1.107 0,0 0.263,0.351 0.579,0.562 0,0 1.213,1.792 1.072,2.144 0,0 1.002,2.002 1.002,2.161 0,0 0.088,0.51 -0.229,0.035 0,0 -0.334,-1.019 -0.491,-1.019 0,0 -0.088,0.122 0.035,0.263 0,0 0.597,1.335 0.474,1.423 0,0 0.088,0.686 -0.228,0.405 0,0 -0.299,0.14 0.228,0.351 0,0 -0.088,0.212 0.299,0.334 0,0 0.456,0.035 0.282,0.931 0,0 0.509,1.037 -0.177,1.055 0,0 -0.158,0.157 0.035,0.369 0,0 0.177,0.035 -0.123,0.139 0,0 0.177,0.826 -0.07,0.844 0,0 -0.123,0.106 0.158,0.212 0,0 -0.105,0.298 0.035,0.491 0,0 0.159,1.968 -0.474,2.003 0,0 -0.931,0.72 -3.357,-0.738 0,0 -3.145,-1.844 -4.745,-4.339 l -3.62,-4.903 -2.917,-3.795 c 0,0 -0.932,-1.107 -1.705,-2.389 0,0 -1.914,-3.25 -2.793,-4.357 0,0 -0.387,-0.633 -0.844,-0.826 0,0 -0.931,-0.791 -0.984,-1.125 0,0 0.263,0.878 -0.035,0.915 0,0 0.351,2.143 0.245,2.406 0,0 0.247,1.915 -0.035,1.739 0,0 -0.65,1.511 -0.615,2.408 0,0 0.018,0.157 -0.07,0.245 0,0 0.035,0.334 -0.071,0.405 0,0 0.089,0.421 0,0.508 0,0 0.212,0.318 0.159,0.528 0,0 -0.035,1.617 -0.141,1.686 0,0 0.123,-0.351 0.141,0.018 0,0 0.123,0.264 -0.228,0.229 0,0 -0.335,-0.088 -0.44,0.017 0,0 -0.194,0.07 -0.176,-0.158 0,0 0.088,-0.141 -0.281,-0.122 0,0 -0.422,-0.088 -0.386,-0.229 0,0 -0.317,-0.632 0.088,-0.071 0,0 0.72,0.247 0.615,-0.088 l 0.123,-0.421 c 0,0 -0.246,0.052 0,-0.299 l 0.052,-0.438 c 0,0 -0.281,-0.054 -0.07,-0.37 l 0.018,-0.404 c 0,0 -0.475,0.562 -0.211,-0.088 l 0.158,-0.527 c 0,0 -0.405,0.176 -0.07,-0.369 0,0 0.545,-1.827 0.58,-2.214 l 0,-0.175 c 0,0 -0.422,-2.706 -0.035,-3.707 l 0.017,-0.229 c 0,0 -0.264,-0.14 -0.264,-0.368 0,0 -0.491,0.07 -0.404,-0.756 0,0 -2.337,1.176 -2.671,1.036 0,0 0,0.509 -1.758,0.088 0,0 -0.228,-0.035 0,0.352 0,0 0.44,0.509 0.141,1.036 0,0 0.316,0.615 -0.106,0.756 0,0 0.229,0.632 -0.21,0.842 0,0 0.263,0.457 0.017,0.493 0,0 0.193,2.53 -0.123,5.693 0,0 -0.157,2.934 -2.46,4.163 0,0 -0.896,-0.298 0.036,-0.86 0,0 1.915,-1.019 1.985,-4.832 l 0.123,-3.953 c 0,0 -1.089,0.966 -2.091,0.966 0,0 -0.58,0.369 -0.773,0.071 0,0 0.053,0.421 -0.141,0.333 0,0 -0.071,0.281 -0.475,0.193 l -0.597,0.035 c 0,0 -1.054,-0.175 -3.585,1.827 l -1.424,1.125 c 0,0 -0.668,0.51 -0.104,-0.193 0,0 -0.018,-0.141 -0.16,0.018 0,0 -0.316,0.438 -0.123,-0.159 0,0 0.458,-1.036 1.213,-2.337 0,0 1.072,-2.09 1.16,-2.583 0,0 -0.193,-0.93 0.159,-1.984 0,0 -0.334,-1.37 0.316,-2.161 0,0 0.298,-0.228 -1.142,-0.018 0,0 -6.274,0.562 -7.504,1.739 0,0 -0.246,0 -0.352,0.21 0,0 -0.228,0.194 -0.351,0.142 0,0 -0.615,0.264 -0.158,-0.422 0,0 0.65,-0.562 0.878,-0.615 0,0 1.266,-0.773 2.935,-1.001 l 3.217,-0.404 c 0,0 0.755,-0.265 1.458,-0.194 0,0 0.756,0.071 1.141,-0.087 0,0 0.422,-0.141 0.791,-0.563 0,0 0.756,-0.966 2.601,-0.579 0,0 -0.614,-1.458 -0.087,-3.813 0,0 -0.017,-0.51 -0.264,-0.228 0,0 -0.422,-0.123 -1.634,0.387 0,0 -0.247,0.104 -0.247,-0.177 0,0 -3.337,0.615 -4.656,0.352 0,0 -0.176,0.158 -0.228,-0.106 l -1.916,0.088 c 0,0 -0.229,0.176 -0.386,0.018 0,0 -0.599,0.333 -0.387,-0.018 0,0 -0.177,-0.053 -0.281,0.035 0,0 -0.985,0.316 -0.44,-0.053 0,0 -1.248,0.369 -0.633,-0.105 0,0 -1.001,0.193 -0.685,-0.07 0,0 -0.123,-0.123 -0.509,-0.158 0,0 -0.756,-0.087 -0.652,-0.316 0,0 -0.21,-0.036 0.054,-0.124 0,0 0.07,-0.14 -0.105,-0.245 l -0.194,-0.159 c 0,0 0.123,-0.281 0.263,-0.122 0,0 0.352,0.281 0.265,-0.124 0,0 0.051,-0.579 0.245,-0.492 0,0 0.264,-0.14 -0.018,0.159 0,0 -0.034,0.228 -0.105,0.562 0,0 1.407,0.527 1.67,0.509 0,0 -0.475,-0.369 0.122,-0.106 l 0.475,0.106 c 0,0 0.281,-0.175 0.316,0 l 0.318,0.018 c 0,0 0.051,-0.193 0.42,-0.018 0,0 0.826,0.194 2.303,-0.088 0,0 0.246,0.106 0.439,-0.193 0,0 3.287,-0.316 3.673,-0.035 0,0 0.579,0.018 0.756,-0.422 0,0 0.65,-0.088 0.843,-0.316 l 0.845,-0.21 m 11.123,5.604 c 0,0 -0.545,-0.122 -0.404,-0.527 0,0 0.071,-0.808 0.299,-0.298 0,0 0.562,0.667 1.142,1.001 0,0 -0.545,0.035 -1.037,-0.176 m 1.705,-2.249 c 0,0 0.07,-0.474 -0.422,-0.439 l -0.703,-0.07 c 0,0 -0.281,-0.018 0.018,-0.316 0,0 0.316,-0.369 0.192,-0.581 0,0 0.44,-0.579 0.581,-0.245 0,0 0.685,1.159 1.125,1.37 l -0.791,0.281 m -11.88,-5.271 c 0,0 -0.018,-0.527 -0.281,-0.72 0,0 0.807,0.703 1.335,0.878 0,0 0.194,0.194 -0.175,0.176 0,0 -0.3,0.299 -0.475,-0.017 l -0.404,-0.317"/>
    </clipPath>
    <clipPath id="clipPath3068" clipPathUnits="userSpaceOnUse">
      <path id="path3070" d="M 0,783 594,783 594,0 0,0 0,783 z"/>
    </clipPath>
    <clipPath id="clipPath3062" clipPathUnits="userSpaceOnUse">
      <path id="path3064" d="M 0,783 594,783 594,0 0,0 0,783 z"/>
    </clipPath>
    <clipPath id="clipPath3050" clipPathUnits="userSpaceOnUse">
      <path id="path3052" d="M 0,783 594,783 594,0 0,0 0,783 z"/>
    </clipPath>
    <clipPath id="clipPath3044" clipPathUnits="userSpaceOnUse">
      <path id="path3046" d="M 0,783 594,783 594,0 0,0 0,783 z"/>
    </clipPath>
    <clipPath id="clipPath3034" clipPathUnits="userSpaceOnUse">
      <path id="path3036" clip-rule="evenodd" d="m 0,397.273 255.118,0 0,-156.194 -255.118,0 0,156.194 z"/>
    </clipPath>
    <clipPath id="clipPath3028" clipPathUnits="userSpaceOnUse">
      <path id="path3030" clip-rule="evenodd" d="m 97.848,345.954 c 0,0 3.12,-1.533 2.002,-4.155 0,0 -0.243,-1.605 -1.312,-3.45 0,0 -1.016,-2.036 -0.727,-2.182 0,0 3.063,-1.264 4.079,-2.138 0,0 2.862,-1.747 4.321,-1.893 0,0 5.099,-1.992 6.168,-3.304 0,0 5.134,-3.855 8.119,-10.005 0.03,-0.064 0.06,-0.128 0.09,-0.195 0,0 1.069,0.873 1.748,0.244 0,0 0.581,-0.342 0.873,-0.196 0,0 0.585,-0.386 0.585,-0.678 0,0 1.215,0.581 1.796,-0.049 0,0 3.06,0.004 3.837,-1.699 0,0 2.377,0.63 3.836,-2.43 0,0 0.116,-0.997 -0.191,-1.616 0,0 -4.624,-8.636 -6.041,-9.806 0,0 -0.076,-5.813 0.727,-9.488 0,0 2.452,-6.739 3.3,-7.541 0,0 2.501,-3.349 3.019,-4.763 0,0 1.32,-3.014 1.32,-3.911 0,0 2.779,-2.216 2.921,-5.373 l 0.176,-2.318 c 0,0 6.105,4.249 17.441,6.649 0,0 -4.139,2.509 -8.174,16.35 0,0 1.087,2.835 1.852,3.487 0,0 0.112,1.849 2.617,4.14 0,0 0.87,1.53 0.653,2.183 0,0 -6.435,6.435 -5.888,14.715 0,0 5.779,0 6.87,0.652 0,0 1.966,9.484 8.94,13.08 0,0 -0.33,2.07 7.193,5.123 0,0 -0.221,1.413 0.544,4.248 0,0 -0.559,3.664 -0.244,7.591 0,0 -0.259,2.201 -0.416,3.457 0,0 -0.109,0.787 0.626,1.466 0,0 0.315,6.912 0.052,9.06 l -1.151,0.578 -0.941,6.285 1.361,4.819 1.939,3.768 7.069,7.073 7.698,3.457 9.533,3.664 8.955,0.472 12.938,-2.827 7.016,-7.335 3.667,-7.594 -0.157,-4.661 6.39,-1.886 1.623,-4.241 -0.472,-4.557 4.556,-6.495 -1.204,-4.819 -8.171,-4.713 -1.518,1.729 -0.784,0.941 c 0,0 -1.83,-2.509 -2.67,-3.297 0,0 -2.408,-4.136 -3.195,-5.028 0,0 -0.792,-1.624 -2.726,-2.096 0,0 10.473,-0.889 14.456,-4.767 0,0 1.309,1.05 3.142,0.735 0,0 1.624,1.046 3.3,1.309 0,0 1.782,1.886 4.556,1.886 0,0 3.559,1.41 5.498,0.626 0,0 0.476,-2.827 -0.154,-4.241 0,0 -1.012,-4.185 -1.533,-4.631 0,0 -0.147,-1.489 -1.043,-2.831 0,0 -0.225,-3.503 -0.671,-4.174 0,0 -0.447,-2.831 -0.372,-3.428 0,0 -2.085,-7.743 -3.948,-9.311 0,0 2.16,-0.446 1.639,-3.056 0,0 -0.297,-2.981 -0.447,-3.653 0,0 -0.15,-3.131 -0.3,-3.427 0,0 1.868,-2.681 1.418,-3.202 0,0 -0.004,-2.536 -3.878,-3.132 0,0 -2.756,-3.056 -4.245,-3.427 0,0 10.133,-0.15 12.443,-2.235 0,0 10.878,-5.738 15.498,-14.307 0,0 5.438,-8.047 5.363,-10.803 l 0.394,-22.391 -277.0427,-0.057 c 0,0 -0.5549,11.194 5.87251,13.853 0,0 1.34609,0.978 1.77729,0.978 0,0 -0.4911,5.044 -1.66111,6.582 0,0 -0.311156,2.089 -0.5549,5.043 0,0 -0.12009,5.288 0.67862,8.55 0,0 2.09259,3.143 3.19889,5.356 0,0 0.7349,1.413 0.7349,2.951 0,0 1.1736,8.362 3.6936,14.268 0,0 2.6439,6.027 4.4889,11.134 0,0 1.226,5.659 3.626,10.028 0,0 7.076,8.921 9.413,11.505 0,0 2.583,2.831 4.736,4.121 0,0 5.531,2.332 6.701,2.396 0,0 3.51,2.153 5.415,2.584 0,0 -2.58,1.106 -2.767,2.768 0,0 0.12,2.583 -0.064,3.446 0,0 -0.491,3.57 -0.307,6.645 0,0 -0.736,2.707 -0.675,3.813 0,0 -0.492,1.602 0.183,2.277 0,0 1.043,0.371 1.414,-0.432 0,0 0.244,1.29 0.491,1.29 l -1.29,1.107 1.047,9.844 0.798,5.722 1.23,7.073 c 0,0 4.553,4.856 4.553,5.103 0,0.248 4.672,3.63 4.672,3.63 l 3.383,1.354 5.044,1.969 4.796,0.982 2.891,2.832 2.768,1.046 2.152,-1.294 3.754,-0.735 1.845,-0.926 3.566,0.862 5.843,-1.661 4.245,-3.997 3.382,-3.447 3.135,-4.121 2.831,-5.535 4.429,-1.785 -0.862,-5.475 -0.616,-9.165 -2.399,-6.641 -2.089,-5.292 -2.044,-0.581"/>
    </clipPath>
    <clipPath id="clipPath3018" clipPathUnits="userSpaceOnUse">
      <path id="path3020" d="M 0,783 594,783 594,0 0,0 0,783 z"/>
    </clipPath>
    <clipPath id="clipPath3012" clipPathUnits="userSpaceOnUse">
      <path id="path3014" d="M 0,783 594,783 594,0 0,0 0,783 z"/>
    </clipPath>
    <clipPath id="clipPath3006" clipPathUnits="userSpaceOnUse">
      <path id="path3008" clip-rule="evenodd" d="m 309.235,783.307 141.282,0 0,-100.834 -141.282,0 0,100.834 z"/>
    </clipPath>
    <clipPath id="clipPath2996" clipPathUnits="userSpaceOnUse">
      <path id="path2998" d="M 0,783 594,783 594,0 0,0 0,783 z"/>
    </clipPath>
    <clipPath id="clipPath2990" clipPathUnits="userSpaceOnUse">
      <path id="path2992" d="M 0,783 594,783 594,0 0,0 0,783 z"/>
    </clipPath>
    <clipPath id="clipPath2980" clipPathUnits="userSpaceOnUse">
      <path id="path2982" clip-rule="evenodd" d="m 87.305,479.977 221.93,0 0,-72.714 -221.93,0 0,72.714 z"/>
    </clipPath>
    <clipPath id="clipPath2966" clipPathUnits="userSpaceOnUse">
      <path id="path2968" d="M 0,783 594,783 594,0 0,0 0,783 z"/>
    </clipPath>
    <clipPath id="clipPath2960" clipPathUnits="userSpaceOnUse">
      <path id="path2962" d="M 0,783 594,783 594,0 0,0 0,783 z"/>
    </clipPath>
    <clipPath id="clipPath2950" clipPathUnits="userSpaceOnUse">
      <path id="path2952" clip-rule="evenodd" d="m 255.618,406.648 146.023,0 0,-166.069 -146.023,0 0,166.069 z"/>
    </clipPath>
    <clipPath id="clipPath2938" clipPathUnits="userSpaceOnUse">
      <path id="path2940" d="M 0,783 594,783 594,0 0,0 0,783 z"/>
    </clipPath>
    <clipPath id="clipPath2932" clipPathUnits="userSpaceOnUse">
      <path id="path2934" d="M 0,783 594,783 594,0 0,0 0,783 z"/>
    </clipPath>
    <clipPath id="clipPath2922" clipPathUnits="userSpaceOnUse">
      <path id="path2924" d="M 0,783 594,783 594,0 0,0 0,783 z"/>
    </clipPath>
    <clipPath id="clipPath2916" clipPathUnits="userSpaceOnUse">
      <path id="path2918" d="M 0,783 594,783 594,0 0,0 0,783 z"/>
    </clipPath>
    <clipPath id="clipPath2910" clipPathUnits="userSpaceOnUse">
      <path id="path2912" clip-rule="evenodd" d="m -17.654,805.177 187.233,0 0,-174.748 -187.233,0 0,174.748 z"/>
    </clipPath>
    <clipPath id="clipPath2868" clipPathUnits="userSpaceOnUse">
      <path id="path2870" d="M 0,783 594,783 594,0 0,0 0,783 z"/>
    </clipPath>
    <clipPath id="clipPath2862" clipPathUnits="userSpaceOnUse">
      <path id="path2864" d="M 0,783 594,783 594,0 0,0 0,783 z"/>
    </clipPath>
    <clipPath id="clipPath2840" clipPathUnits="userSpaceOnUse">
      <path id="path2842" d="M 0,783 594,783 594,0 0,0 0,783 z"/>
    </clipPath>
    <clipPath id="clipPath2834" clipPathUnits="userSpaceOnUse">
      <path id="path2836" d="M 0,783 594,783 594,0 0,0 0,783 z"/>
    </clipPath>
    <inkscape:perspective id="perspective2824" inkscape:persp3d-origin="0.5 : 0.33333333 : 1" inkscape:vp_z="1 : 0.5 : 1" inkscape:vp_y="0 : 1000 : 0" inkscape:vp_x="0 : 0.5 : 1" sodipodi:type="inkscape:persp3d"/>
  </defs>
  <sodipodi:namedview id="base" pagecolor="#ffffff" bordercolor="#666666" borderopacity="1.0" inkscape:pageopacity="0.0" inkscape:pageshadow="2" inkscape:zoom="4.3888889" inkscape:cx="136.30917" inkscape:cy="-13.424123" inkscape:document-units="px" inkscape:current-layer="layer1" showgrid="false" inkscape:window-width="1680" inkscape:window-height="1000" inkscape:window-x="-8" inkscape:window-y="-8" inkscape:window-maximized="1"/>
  <metadata id="metadata7">
    <rdf:RDF>
      <cc:Work rdf:about="">
        <dc:format>image/svg+xml</dc:format>
        <dc:type rdf:resource="http://purl.org/dc/dcmitype/StillImage"/>
        <dc:title/>
      </cc:Work>
    </rdf:RDF>
  </metadata>
  <g inkscape:label="Layer 1" inkscape:groupmode="layer" id="layer1" transform="translate(671.57732,-891.55553)">
    <path d="m -659.63378,916.33585 c 5.27625,0.46375 16.87125,0.58 18.5525,-12.35 1.68125,-12.92875 -13.16125,-11.015 -13.16125,-11.015 l -7.05,0.15 -9.60125,35.135 7.8625,0 3.3975,-11.92 z m 4.41375,-16.18375 c 0.53875,-0.06 4.365,-0.44875 5.4425,0.41375 1.15875,0.9275 0.305,5.43625 -1.5075,7.13125 -2.6675,2.4925 -6.43625,1.62375 -6.43625,1.62375 l 2.50125,-9.16875" style="fill:#231f20;fill-opacity:1;fill-rule:nonzero;stroke:none" id="path2850"/>
    <path d="m -617.44878,895.62585 c -0.62625,-0.97375 -1.6,-1.77375 -2.64375,-2.1225 -6.71375,-2.19125 -12.245,2.9925 -16.10625,7.93125 -3.7575,5.28875 -6.1925,11.1325 -6.29625,17.98625 0.17375,3.86125 1.1125,8.175 5.04375,9.705 6.47,1.635 11.20125,-3.82625 14.645,-8.38375 0.34875,-0.66125 1.04375,-1.2175 1.04375,-1.9475 -0.2775,-0.14 -0.52125,-0.3825 -0.835,-0.34875 -0.765,1.07875 -1.46125,2.0875 -2.4,3.09625 -2.26125,2.1575 -5.07875,3.86125 -8.31375,3.13125 -3.58375,-1.6 -3.7225,-5.81 -3.41,-9.3925 0.31375,-1.3575 0.31375,-2.8525 0.94,-4.105 l 2.435,-0.69625 c 5.3575,-1.77375 11.65375,-2.12125 15.2025,-7.51375 1.1825,-2.0525 2.15625,-5.07875 0.695,-7.34 z m -11.8625,11.8975 c -7.305,2.37625 -5.46125,1.39125 -5.46125,1.39125 0,0 5.52125,-16.62 11.20125,-14.66875 5.74,1.97125 1.565,10.9 -5.74,13.2775" style="fill:#231f20;fill-opacity:1;fill-rule:nonzero;stroke:none" id="path2852"/>
    <path d="m -613.22753,893.09335 23.31375,-0.145 -2.05875,7.595 -7.61875,0.145 -7.7225,27.54 -8.54625,0 7.48,-27.5975 -7.01625,0 2.16875,-7.5375" style="fill:#231f20;fill-opacity:1;fill-rule:nonzero;stroke:none" id="path2854"/>
    <path d="m -583.28753,893.05085 -16.97625,35.17125 8.76625,0 2.67625,-5.79875 7.9,0 0,5.76375 7.6875,-0.035 0,-35.18125 -10.05375,0.08 z m 2.36625,12.1925 0,10.2225 -4.69,0 4.69,-10.2225" style="fill:#231f20;fill-opacity:1;fill-rule:nonzero;stroke:none" id="path2856"/>
    <g id="g2906" transform="matrix(1.25,0,0,-1.25,3.75,1117.0876)">
      <g id="g2908" clip-path="url(#clipPath2910)">
        <g id="g2914" clip-path="url(#clipPath2916)">
          <g id="g2920" clip-path="url(#clipPath2922)">
            <g id="g2926" transform="matrix(172.0724,0,0,154.41426,-1.364136,629.79144)"/>
          </g>
        </g>
      </g>
    </g>
    <g id="g2946" transform="matrix(1.25,0,0,-1.25,3.75,1117.0876)">
      <g id="g2948" clip-path="url(#clipPath2950)">
        <g id="g2954" transform="matrix(147.45946,0,0,166.77299,255.16699,240.20399)"/>
      </g>
    </g>
    <g id="g2976" transform="matrix(1.25,0,0,-1.25,3.75,1117.0876)">
      <g id="g2978" clip-path="url(#clipPath2980)">
        <g id="g2984" transform="matrix(223.55093,0,0,73.976997,86.260986,406.61298)"/>
      </g>
    </g>
    <g id="g3002" transform="matrix(1.25,0,0,-1.25,3.75,1117.0876)">
      <g id="g3004" clip-path="url(#clipPath3006)">
        <g id="g3010" clip-path="url(#clipPath3012)">
          <g id="g3016" clip-path="url(#clipPath3018)">
            <g id="g3022" transform="matrix(142.55418,0,0,100.4359,308.875,681.93506)"/>
          </g>
        </g>
      </g>
    </g>
    <g id="g3024" transform="matrix(1.25,0,0,-1.25,3.75,1117.0876)">
      <g id="g3026" clip-path="url(#clipPath3028)">
        <g id="g3032" clip-path="url(#clipPath3034)">
          <g id="g3038" transform="matrix(256.32001,0,0,156.36002,-0.552032,240.19296)"/>
        </g>
      </g>
    </g>
    <g id="g3086" transform="matrix(1.25,0,0,-1.25,3.75,1117.0876)">
      <g id="g3088" clip-path="url(#clipPath3090)">
        <g id="g3094" clip-path="url(#clipPath3096)">
          <g id="g3100" clip-path="url(#clipPath3102)">
            <g id="g3106" clip-path="url(#clipPath3108)">
              <g id="g3112" transform="matrix(61.919998,0,0,58.607998,208.90199,522.68799)"/>
            </g>
          </g>
        </g>
      </g>
    </g>
    <g id="g3132" transform="matrix(1.25,0,0,-1.25,3.75,1117.0876)">
      <g id="g3134" clip-path="url(#clipPath3136)">
        <g id="g3140" transform="matrix(228.94334,0,0,146.38939,309.10501,479.57257)"/>
      </g>
    </g>
  </g>
</svg>