<?xml version="1.0" encoding="UTF-8" standalone="no"?>
<svg
   xmlns:svg="http://www.w3.org/2000/svg"
   xmlns="http://www.w3.org/2000/svg"
   version="1.1"
   width="96"
   height="93"
   id="svg2876">
  <path
     d="m 30,2 0,34.5 C 14.502281,36.76763 2,49.438975 2,65 2,70.955012 3.8412846,76.48851 6.96875,81.0625 L 7.25,81.5 30,81.5 30,91 94,91 94,2 30,2 z"
     id="border"
     style="stroke:#000000;stroke-width:4;stroke-linejoin:round" />
  <rect
     width="60"
     height="85"
     x="32"
     y="4"
     id="case"
     style="fill:#848484;stroke:#ffffff;stroke-width:4" />
  <path
     d="m 85.5,35 a 22.5,22.5 0 0 1 -45,0 22.5,22.5 0 1 1 45,0 z"
     id="disk"
     style="fill:#848484;stroke:#ffffff;stroke-width:6" />
  <path
     d="m 68,35 a 5,5 0 0 1 -10,0 5,5 0 1 1 10,0 z"
     id="axis"
     style="fill:#ffffff" />
  <path
     d="M 88.170431,72.375 66,48.224688 76.695595,79 88.170431,72.375 z"
     id="arm"
     style="fill:#4a4a4a;stroke:#ffffff;stroke-width:2;stroke-linejoin:bevel" />
  <path
     d="M 30.5,37.5 C 15.312169,37.5 3,49.812169 3,65 3,70.750595 4.7632823,76.086153 7.78125,80.5 l 45.4375,0 C 56.236718,76.086153 58,70.750595 58,65 58,49.812169 45.687831,37.5 30.5,37.5 z"
     id="scale"
     style="fill:#009c18;stroke:#ffffff;stroke-width:2" />
  <path
     d="m 10.9375,51.4375 6.53125,11.125 1.28125,-0.5 7.90625,7.90625 c -0.362162,1.337864 -0.05035,2.824646 1,3.875 1.562097,1.562097 4.125403,1.562097 5.6875,0 1.562097,-1.562097 1.562097,-4.125403 0,-5.6875 -1.050354,-1.050354 -2.537136,-1.362162 -3.875,-1 L 21.5625,59.25 l 0.5,-1.28125 -11.125,-6.53125 z"
     id="hand"
     style="fill:#ffffff" />
</svg>